<svg xmlns="http://www.w3.org/2000/svg" width="32" height="32" fill="none" viewBox="0 0 32 32"><rect width="32" height="32" fill="#FF2F64" rx="16"/><path fill="#FCFCFC" fill-rule="evenodd" d="M9.167 9.25a.667.667 0 0 0 0 1.333h1.77l.468 2.336a.656.656 0 0 0 .011.053l.967 4.833a1.826 1.826 0 0 0 1.819 1.47h5.62a1.826 1.826 0 0 0 1.819-1.47l.001-.005.927-4.861a.667.667 0 0 0-.655-.792h-9.303l-.473-2.361a.667.667 0 0 0-.654-.536H9.167Zm4.524 8.294-.813-4.064h8.23l-.775 4.067a.492.492 0 0 1-.492.395H14.183a.493.493 0 0 1-.492-.397Zm-1.134 3.961a1.246 1.246 0 1 1 2.492 0 1.246 1.246 0 0 1-2.492 0Zm6.374 0a1.246 1.246 0 1 1 2.491 0 1.246 1.246 0 0 1-2.491 0Z" clip-rule="evenodd"/></svg>