<svg xmlns="http://www.w3.org/2000/svg" width="48" height="29" fill="none" viewBox="0 0 48 29"><rect width="48" height="28" y=".86" rx="14"/><path fill="#2D3440" fill-rule="evenodd" d="M25 8.52c0-.36.3-.66.67-.66h2.66a2 2 0 0 1 2 2v9.33a2 2 0 0 1-2 2h-2.66a.67.67 0 0 1 0-1.33h2.66a.67.67 0 0 0 .67-.67V9.86a.67.67 0 0 0-.67-.67h-2.66a.67.67 0 0 1-.67-.67Zm-3.14 2.2a.67.67 0 0 1 .94 0l3.33 3.33a.68.68 0 0 1 .13.18.66.66 0 0 1-.13.77l-3.33 3.33a.67.67 0 1 1-.94-.94l2.2-2.2h-6.4a.67.67 0 0 1 0-1.33h6.4l-2.2-2.2a.67.67 0 0 1 0-.94Z" clip-rule="evenodd"/></svg>
